<svg width="301" height="310" viewBox="0 0 301 310" fill="none" xmlns="http://www.w3.org/2000/svg">
<path d="M25.3179 4H131.054M281.158 4H192.008M131.054 4V30.1198H161.531M131.054 4H192.008M192.008 4V30.1198H161.531M161.531 30.1198V81.5303M161.531 81.5303L154.689 122.75L192.008 102.588L161.531 81.5303ZM50.1746 234.518L252.657 117.601M50.1746 234.518L37.7463 213.581M50.1746 234.518L79.2226 283.453M252.657 117.601L230.985 81.5303L25.3179 192.643L37.7463 213.581M252.657 117.601L296 189.741L91.9916 305L79.2226 283.453M103.272 252.346L124.005 239.493M37.7463 213.581L5 230.787L46.4651 301.269L79.2226 283.453" stroke="black" stroke-width="7" stroke-linecap="round"/>
</svg>
