<svg width="303" height="333" viewBox="0 0 303 333" fill="none" xmlns="http://www.w3.org/2000/svg">
<path d="M223.538 113.687V48.417H258.401C283.996 48.417 283.555 93.2625 258.401 93.2625H236.336V115.463M190 20V135H299V20H190ZM236.336 59.9614V82.1622H253.547C265.462 82.1622 266.344 59.9614 253.547 59.9614H236.336Z" stroke="black" stroke-width="7" stroke-linecap="round"/>
<path d="M160.649 161.864L142.865 78H88L74.3784 161.864M160.649 161.864H276.054M160.649 161.864H74.3784M298 161.864H276.054M276.054 161.864V329H33.1351V161.864M4 161.864H74.3784" stroke="black" stroke-width="7" stroke-linecap="round"/>
<path d="M144.5 33C144.5 49.243 131.118 62.5 114.5 62.5C97.8817 62.5 84.5 49.243 84.5 33C84.5 16.757 97.8817 3.5 114.5 3.5C131.118 3.5 144.5 16.757 144.5 33Z" stroke="black" stroke-width="7"/>
</svg>
