<svg width="319" height="327" viewBox="0 0 319 327" fill="none" xmlns="http://www.w3.org/2000/svg">
<path d="M43 238H78.7215M281 238H249.582M78.7215 238V211.919M78.7215 238H118.316M249.582 238V211.919M249.582 238H208.266M78.7215 163.853V144.886H92.9241M78.7215 163.853H118.316V185.839H78.7215M78.7215 163.853V185.839M78.7215 185.839V211.919M249.582 163.853V144.886H232.797M249.582 163.853H208.266V185.839H249.582M249.582 163.853V185.839M249.582 185.839V211.919M249.582 211.919H208.266M78.7215 211.919H118.316M118.316 211.919V238M118.316 211.919H208.266M118.316 238H208.266M208.266 211.919V238M92.9241 144.886L110.139 91H215.152L232.797 144.886M92.9241 144.886H232.797" stroke="black" stroke-width="7" stroke-linecap="round"/>
<path d="M5 41.5V4H44.5" stroke="black" stroke-width="7" stroke-linecap="round"/>
<path d="M4 286V323.5H43.5" stroke="black" stroke-width="7" stroke-linecap="round"/>
<path d="M278 4L315.5 4L315.5 43.5" stroke="black" stroke-width="7" stroke-linecap="round"/>
<path d="M277 323.5L314.5 323.5L314.5 284" stroke="black" stroke-width="7" stroke-linecap="round"/>
</svg>
