<svg width="959" height="178" viewBox="0 0 959 178" fill="none" xmlns="http://www.w3.org/2000/svg">
<path d="M647.298 28.6807H647.542C648.665 28.6807 649.601 28.5342 650.35 28.2412C651.106 27.9401 651.709 27.5251 652.156 26.9961C652.604 26.4671 652.925 25.8446 653.121 25.1284C653.316 24.4123 653.414 23.6351 653.414 22.7969V19.7329C653.414 19.0086 653.336 18.3739 653.182 17.8286C653.035 17.2752 652.824 16.8154 652.547 16.4492C652.278 16.0749 651.965 15.7941 651.607 15.6069C651.257 15.4198 650.879 15.3262 650.472 15.3262C650.024 15.3262 649.621 15.4279 649.263 15.6313C648.913 15.8267 648.616 16.0993 648.372 16.4492C648.136 16.791 647.953 17.1938 647.823 17.6577C647.701 18.1134 647.64 18.6017 647.64 19.1226C647.64 19.6108 647.697 20.0828 647.811 20.5386C647.933 20.9862 648.112 21.3849 648.348 21.7349C648.584 22.0848 648.881 22.3615 649.239 22.5649C649.597 22.7684 650.016 22.8701 650.496 22.8701C650.952 22.8701 651.371 22.7847 651.753 22.6138C652.136 22.4347 652.47 22.1947 652.754 21.8936C653.039 21.5924 653.263 21.2547 653.426 20.8804C653.589 20.506 653.678 20.1235 653.694 19.7329L654.817 20.0747C654.817 20.6932 654.687 21.3035 654.427 21.9058C654.174 22.4998 653.82 23.0451 653.365 23.5415C652.917 24.0298 652.392 24.4204 651.79 24.7134C651.196 25.0063 650.549 25.1528 649.849 25.1528C649.003 25.1528 648.254 24.9941 647.603 24.6768C646.96 24.3512 646.423 23.9118 645.992 23.3584C645.569 22.805 645.251 22.1702 645.04 21.4541C644.828 20.738 644.722 19.9852 644.722 19.1958C644.722 18.3413 644.852 17.5397 645.113 16.791C645.373 16.0423 645.752 15.3831 646.248 14.8135C646.744 14.2357 647.347 13.7881 648.055 13.4707C648.771 13.1452 649.581 12.9824 650.484 12.9824C651.444 12.9824 652.286 13.1696 653.011 13.5439C653.735 13.9183 654.345 14.4351 654.842 15.0942C655.338 15.7534 655.713 16.5184 655.965 17.3892C656.217 18.2599 656.343 19.1958 656.343 20.1968V21.2344C656.343 22.2842 656.25 23.2974 656.062 24.2739C655.875 25.2424 655.57 26.1416 655.147 26.9717C654.732 27.7936 654.183 28.5179 653.499 29.1445C652.824 29.763 651.993 30.2472 651.009 30.5972C650.032 30.939 648.885 31.1099 647.566 31.1099H647.298V28.6807ZM661.507 28.6807H661.751C662.874 28.6807 663.81 28.5342 664.559 28.2412C665.315 27.9401 665.918 27.5251 666.365 26.9961C666.813 26.4671 667.134 25.8446 667.33 25.1284C667.525 24.4123 667.623 23.6351 667.623 22.7969V19.7329C667.623 19.0086 667.545 18.3739 667.391 17.8286C667.244 17.2752 667.033 16.8154 666.756 16.4492C666.487 16.0749 666.174 15.7941 665.816 15.6069C665.466 15.4198 665.088 15.3262 664.681 15.3262C664.233 15.3262 663.83 15.4279 663.472 15.6313C663.122 15.8267 662.825 16.0993 662.581 16.4492C662.345 16.791 662.162 17.1938 662.032 17.6577C661.91 18.1134 661.849 18.6017 661.849 19.1226C661.849 19.6108 661.906 20.0828 662.02 20.5386C662.142 20.9862 662.321 21.3849 662.557 21.7349C662.793 22.0848 663.09 22.3615 663.448 22.5649C663.806 22.7684 664.225 22.8701 664.705 22.8701C665.161 22.8701 665.58 22.7847 665.962 22.6138C666.345 22.4347 666.679 22.1947 666.963 21.8936C667.248 21.5924 667.472 21.2547 667.635 20.8804C667.798 20.506 667.887 20.1235 667.903 19.7329L669.026 20.0747C669.026 20.6932 668.896 21.3035 668.636 21.9058C668.383 22.4998 668.029 23.0451 667.574 23.5415C667.126 24.0298 666.601 24.4204 665.999 24.7134C665.405 25.0063 664.758 25.1528 664.058 25.1528C663.212 25.1528 662.463 24.9941 661.812 24.6768C661.169 24.3512 660.632 23.9118 660.201 23.3584C659.778 22.805 659.46 22.1702 659.249 21.4541C659.037 20.738 658.931 19.9852 658.931 19.1958C658.931 18.3413 659.061 17.5397 659.322 16.791C659.582 16.0423 659.961 15.3831 660.457 14.8135C660.953 14.2357 661.556 13.7881 662.264 13.4707C662.98 13.1452 663.79 12.9824 664.693 12.9824C665.653 12.9824 666.495 13.1696 667.22 13.5439C667.944 13.9183 668.554 14.4351 669.051 15.0942C669.547 15.7534 669.922 16.5184 670.174 17.3892C670.426 18.2599 670.552 19.1958 670.552 20.1968V21.2344C670.552 22.2842 670.459 23.2974 670.271 24.2739C670.084 25.2424 669.779 26.1416 669.356 26.9717C668.941 27.7936 668.392 28.5179 667.708 29.1445C667.033 29.763 666.202 30.2472 665.218 30.5972C664.241 30.939 663.094 31.1099 661.775 31.1099H661.507V28.6807ZM673.226 17.5845V16.6445C673.226 15.9691 673.372 15.3547 673.665 14.8013C673.958 14.2479 674.385 13.8044 674.947 13.4707C675.508 13.137 676.184 12.9702 676.973 12.9702C677.787 12.9702 678.471 13.137 679.024 13.4707C679.585 13.8044 680.013 14.2479 680.306 14.8013C680.599 15.3547 680.745 15.9691 680.745 16.6445V17.5845C680.745 18.2437 680.599 18.8499 680.306 19.4033C680.021 19.9567 679.598 20.4002 679.036 20.7339C678.483 21.0675 677.803 21.2344 676.998 21.2344C676.2 21.2344 675.516 21.0675 674.947 20.7339C674.385 20.4002 673.958 19.9567 673.665 19.4033C673.372 18.8499 673.226 18.2437 673.226 17.5845ZM675.264 16.6445V17.5845C675.264 17.91 675.325 18.2192 675.447 18.5122C675.577 18.8052 675.773 19.0412 676.033 19.2202C676.294 19.3993 676.615 19.4888 676.998 19.4888C677.388 19.4888 677.706 19.3993 677.95 19.2202C678.202 19.0412 678.389 18.8052 678.511 18.5122C678.633 18.2192 678.694 17.91 678.694 17.5845V16.6445C678.694 16.3109 678.629 15.9976 678.499 15.7046C678.377 15.4035 678.19 15.1634 677.938 14.9844C677.685 14.8053 677.364 14.7158 676.973 14.7158C676.599 14.7158 676.281 14.8053 676.021 14.9844C675.769 15.1634 675.577 15.4035 675.447 15.7046C675.325 15.9976 675.264 16.3109 675.264 16.6445ZM681.795 27.5942V26.6421C681.795 25.9748 681.941 25.3644 682.234 24.811C682.535 24.2576 682.967 23.8141 683.528 23.4805C684.09 23.1468 684.765 22.98 685.555 22.98C686.368 22.98 687.052 23.1468 687.605 23.4805C688.167 23.8141 688.59 24.2576 688.875 24.811C689.168 25.3644 689.314 25.9748 689.314 26.6421V27.5942C689.314 28.2616 689.168 28.8719 688.875 29.4253C688.59 29.9787 688.171 30.4222 687.618 30.7559C687.064 31.0895 686.389 31.2563 685.591 31.2563C684.786 31.2563 684.098 31.0895 683.528 30.7559C682.967 30.4222 682.535 29.9787 682.234 29.4253C681.941 28.8719 681.795 28.2616 681.795 27.5942ZM683.846 26.6421V27.5942C683.846 27.9198 683.911 28.229 684.041 28.522C684.179 28.8149 684.379 29.055 684.639 29.2422C684.9 29.4212 685.213 29.5107 685.579 29.5107C685.994 29.5107 686.328 29.4212 686.58 29.2422C686.832 29.055 687.011 28.819 687.117 28.5342C687.231 28.2412 687.288 27.9279 687.288 27.5942V26.6421C687.288 26.3084 687.223 25.9951 687.093 25.7021C686.971 25.4092 686.779 25.1732 686.519 24.9941C686.267 24.8151 685.945 24.7256 685.555 24.7256C685.172 24.7256 684.855 24.8151 684.603 24.9941C684.35 25.1732 684.159 25.4092 684.029 25.7021C683.907 25.9951 683.846 26.3084 683.846 26.6421ZM686.287 15.7656L677.608 29.6572L676.106 28.7905L684.786 14.8989L686.287 15.7656Z" fill="#CF95EB"/>
<path d="M1 176C26.8799 168.656 88.2613 153.72 126.748 152.722C174.856 151.475 249.161 147.734 290.601 144.409C332.04 141.083 436.354 116.974 480.175 112.817C523.996 108.66 572.581 84.5511 604.97 85.3824C637.36 86.2138 634.978 102.01 660.223 99.9311C685.468 97.8527 760.25 33.4228 820.742 31.3444C869.136 29.6817 891.078 10.422 896 1" stroke="url(#paint0_linear_65_5)" stroke-width="3"/>
<line x1="709" y1="21.5" x2="959" y2="21.5" stroke="#D6D6D6" stroke-width="3" stroke-dasharray="7 7"/>
<defs>
<linearGradient id="paint0_linear_65_5" x1="921.5" y1="0.999885" x2="10.5" y2="160.5" gradientUnits="userSpaceOnUse">
<stop offset="0.223958" stop-color="#CA7BEF"/>
<stop offset="1" stop-color="white"/>
</linearGradient>
</defs>
</svg>
