<svg width="1062" height="206" viewBox="0 0 1062 206" fill="none" xmlns="http://www.w3.org/2000/svg">
<rect width="1062" height="190" rx="20" fill="#10212B"/>
<path d="M1003.17 132.946L984 138.082L997.976 190.242L1061.73 173.16L1047.75 121L1027.75 126.359L1035.58 155.581L1011 162.168L1003.17 132.946Z" fill="#A9C9DB"/>
<path d="M802.167 130.946L783 136.082L796.976 188.242L860.727 171.16L846.751 119L826.751 124.359L834.581 153.581L809.997 160.168L802.167 130.946Z" fill="#A9C9DB"/>
<path d="M971.089 132.89L990.525 128.893L979.647 76L915 89.2963L925.879 142.189L946.16 138.018L940.065 108.385L964.994 103.258L971.089 132.89Z" fill="#A9C9DB"/>
<path d="M1028.21 14.0312L1014.18 0L976 38.1838L1022.67 84.8528L1060.85 46.669L1046.21 32.0278L1024.82 53.4199L1006.82 35.4233L1028.21 14.0312Z" fill="#A9C9DB"/>
<path d="M469.27 135.427H449.427V189.427H515.427V135.427H494.721V165.68H469.27V135.427Z" fill="#A9C9DB"/>
<path d="M1032.12 111.971L1051.29 117.107L1057.73 93.082L993.976 75.9999L987.539 100.025L1007.54 105.384L1000 133.519L1024.58 140.106L1032.12 111.971Z" fill="#A9C9DB"/>
<path d="M897.566 168.761L912.004 182.372L929.066 164.274L881.043 119L863.981 137.098L879.047 151.302L859.066 172.495L877.585 189.954L897.566 168.761Z" fill="#A9C9DB"/>
<path d="M965.619 150.621L975.541 133.436L954 121L921 178.158L942.541 190.594L952.894 172.662L978.119 187.226L990.844 165.185L965.619 150.621Z" fill="#A9C9DB"/>
<path d="M683.619 150.621L693.54 133.436L672 121L639 178.158L660.54 190.594L670.893 172.662L696.118 187.226L708.844 165.185L683.619 150.621Z" fill="#A9C9DB"/>
</svg>
