<svg width="304" height="77" viewBox="0 0 304 77" fill="none" xmlns="http://www.w3.org/2000/svg">
<path d="M88.44 62V33.51H83.47V27.28H88.44V22.24C88.44 18.46 89.3733 15.7533 91.24 14.12C93.1533 12.44 95.8367 11.6 99.29 11.6H102.93V17.9H100.41C98.7767 17.9 97.61 18.25 96.91 18.95C96.21 19.6033 95.86 20.7233 95.86 22.31V27.28H103.84V33.51H95.86V62H88.44ZM110.91 62V11.6H118.33V62H110.91ZM140.584 62.84C136.384 62.84 133.071 61.5333 130.644 58.92C128.264 56.3067 127.074 52.41 127.074 47.23V27.28H134.494V46.46C134.494 53.18 137.247 56.54 142.754 56.54C145.507 56.54 147.771 55.56 149.544 53.6C151.317 51.64 152.204 48.84 152.204 45.2V27.28H159.624V62H153.044L152.484 55.91C151.411 58.0567 149.824 59.76 147.724 61.02C145.671 62.2333 143.291 62.84 140.584 62.84ZM185.303 62.84C181.99 62.84 179.003 62.0933 176.343 60.6C173.73 59.06 171.653 56.9367 170.113 54.23C168.573 51.4767 167.803 48.28 167.803 44.64C167.803 41 168.573 37.8267 170.113 35.12C171.7 32.3667 173.823 30.2433 176.483 28.75C179.143 27.21 182.106 26.44 185.373 26.44C188.686 26.44 191.65 27.21 194.263 28.75C196.923 30.2433 199.023 32.3667 200.563 35.12C202.15 37.8267 202.943 41 202.943 44.64C202.943 48.28 202.15 51.4767 200.563 54.23C199.023 56.9367 196.923 59.06 194.263 60.6C191.603 62.0933 188.616 62.84 185.303 62.84ZM185.303 56.47C187.076 56.47 188.71 56.0267 190.203 55.14C191.743 54.2533 192.98 52.9467 193.913 51.22C194.846 49.4467 195.313 47.2533 195.313 44.64C195.313 42.0267 194.846 39.8567 193.913 38.13C193.026 36.3567 191.813 35.0267 190.273 34.14C188.78 33.2533 187.146 32.81 185.373 32.81C183.6 32.81 181.943 33.2533 180.403 34.14C178.91 35.0267 177.696 36.3567 176.763 38.13C175.83 39.8567 175.363 42.0267 175.363 44.64C175.363 47.2533 175.83 49.4467 176.763 51.22C177.696 52.9467 178.91 54.2533 180.403 55.14C181.896 56.0267 183.53 56.47 185.303 56.47Z" fill="black"/>
<path d="M0 36.6318C0 36.5821 0 36.5573 0.00313041 36.5015C0.0189019 36.2199 0.160497 35.7792 0.31167 35.5411C0.341676 35.4939 0.337511 35.4997 0.339177 35.4974C1.49847 33.8795 5.73663 29 14.685 29C23.5454 29 29.7477 36.0116 38.9859 36.0116C43.7139 36.0116 48.0079 34.4338 50.9566 32.9832C51.8398 32.5487 52.2814 32.3315 52.4576 32.2818C53.7074 31.9296 54.7311 32.5669 54.9668 33.8438C55 34.0238 55 34.4507 55 35.3046V42.3844C55 42.5289 55 42.6012 54.9918 42.6912C54.9453 43.2049 54.6303 43.7789 54.222 44.094C54.1505 44.1493 54.1057 44.1778 54.0162 44.2348C51.7416 45.6831 45.7897 49 38.9859 49C29.7477 49 24.21 41.9642 14.685 41.9642C10.9156 41.9642 7.82981 43.0623 5.47687 44.3894C3.70471 45.3889 2.81863 45.8886 2.64039 45.9488C1.21411 46.4309 0.315857 45.9063 0.0350866 44.4271C0 44.2423 0 43.424 0 41.7874V36.6318Z" fill="black"/>
<path d="M0 16.3093C0 16.2591 0 16.234 0.00343559 16.1754C0.0206782 15.8817 0.176765 15.4195 0.34117 15.1754C0.373928 15.1267 0.365236 15.1381 0.368713 15.1336C1.56922 13.5588 5.81098 9 14.685 9C23.5454 9 29.7477 15.661 38.9859 15.661C43.753 15.661 48.0789 14.1372 51.0295 12.7498C51.8853 12.3475 52.3132 12.1463 52.4886 12.0999C53.728 11.7721 54.7367 12.4124 54.9674 13.6735C55 13.852 55 14.2629 55 15.0849V21.6196C55 21.7686 55 21.843 54.9914 21.9353C54.9425 22.4626 54.6124 23.0468 54.1859 23.3609C54.1113 23.4158 54.0647 23.4439 53.9714 23.5001C51.6642 24.8898 45.7455 28 38.9859 28C29.7477 28 24.21 21.316 14.685 21.316C10.8493 21.316 7.72139 22.3962 5.35331 23.6867C3.6464 24.6168 2.79294 25.0819 2.61518 25.1393C1.1995 25.597 0.310143 25.0688 0.0345985 23.6067C0 23.4231 0 22.641 0 21.0769V16.3093Z" fill="black"/>
<circle cx="13" cy="57" r="8" fill="black"/>
<path d="M22.5076 50.2511L13.5 49.5L20.5 58.0001L22.5076 50.2511Z" fill="black" stroke="black" stroke-linejoin="round"/>
</svg>
