<svg width="64" height="36" viewBox="0 0 64 36" fill="none" xmlns="http://www.w3.org/2000/svg">
<path d="M0.652344 35V0.625H14.4023V7.32422H7.56641V12.793H14.0508V19.4141H7.56641V35H0.652344ZM16.5117 35V0.625H23.6211V35H16.5117ZM32.0781 35.3125C30.5156 35.3125 29.3177 34.987 28.4844 34.3359C27.6641 33.6849 27.1042 32.7799 26.8047 31.6211C26.5052 30.4492 26.3555 29.082 26.3555 27.5195V5.70312H33.3867V26.6992C33.3867 27.8711 33.4779 28.6914 33.6602 29.1602C33.8424 29.6159 34.2721 29.8438 34.9492 29.8438C35.6784 29.8438 36.1341 29.5182 36.3164 28.8672C36.5117 28.2161 36.6094 27.3763 36.6094 26.3477V5.70312H43.582V35H36.5898V31.875C36.1471 32.9948 35.6133 33.8477 34.9883 34.4336C34.3763 35.0195 33.4062 35.3125 32.0781 35.3125ZM54.9102 35.3125C49.0768 35.3125 46.1602 32.2852 46.1602 26.2305V14.4727C46.1602 11.7122 46.9349 9.51172 48.4844 7.87109C50.0339 6.21745 52.1758 5.39062 54.9102 5.39062C57.6576 5.39062 59.806 6.21745 61.3555 7.87109C62.9049 9.51172 63.6797 11.7122 63.6797 14.4727V26.2305C63.6797 32.2852 60.7565 35.3125 54.9102 35.3125ZM54.9102 29.9219C55.4961 29.9219 55.9128 29.7135 56.1602 29.2969C56.4206 28.8672 56.5508 28.3268 56.5508 27.6758V13.3594C56.5508 11.6536 56.0039 10.8008 54.9102 10.8008C53.8164 10.8008 53.2695 11.6536 53.2695 13.3594V27.6758C53.2695 28.3268 53.3932 28.8672 53.6406 29.2969C53.901 29.7135 54.3242 29.9219 54.9102 29.9219Z" fill="#0D0D0D"/>
</svg>
