<svg width="73" height="36" viewBox="0 0 73 36" fill="none" xmlns="http://www.w3.org/2000/svg">
<path d="M0.640625 35V0.625H7.51562V29.1406H14.5859V35H0.640625ZM24.9375 35.3125C19.1042 35.3125 16.1875 32.2852 16.1875 26.2305V14.4727C16.1875 11.7122 16.9622 9.51172 18.5117 7.87109C20.0612 6.21745 22.2031 5.39062 24.9375 5.39062C27.6849 5.39062 29.8333 6.21745 31.3828 7.87109C32.9323 9.51172 33.707 11.7122 33.707 14.4727V26.2305C33.707 32.2852 30.7839 35.3125 24.9375 35.3125ZM24.9375 29.9219C25.5234 29.9219 25.9401 29.7135 26.1875 29.2969C26.4479 28.8672 26.5781 28.3268 26.5781 27.6758V13.3594C26.5781 11.6536 26.0312 10.8008 24.9375 10.8008C23.8438 10.8008 23.2969 11.6536 23.2969 13.3594V27.6758C23.2969 28.3268 23.4206 28.8672 23.668 29.2969C23.9284 29.7135 24.3516 29.9219 24.9375 29.9219ZM45.1133 35.3125C41.832 35.3125 39.5013 34.4727 38.1211 32.793C36.7539 31.1133 36.0703 28.6458 36.0703 25.3906V16.3672C36.0703 13.9193 36.3307 11.8815 36.8516 10.2539C37.3724 8.6263 38.2839 7.40885 39.5859 6.60156C40.888 5.79427 42.6979 5.39062 45.0156 5.39062C46.6302 5.39062 48.0755 5.67708 49.3516 6.25C50.6406 6.82292 51.6562 7.66276 52.3984 8.76953C53.1406 9.8763 53.5117 11.2305 53.5117 12.832V17.3047H46.3828V13.2031C46.3828 12.526 46.2852 11.9596 46.0898 11.5039C45.8945 11.0352 45.4714 10.8008 44.8203 10.8008C43.6745 10.8008 43.1016 11.6146 43.1016 13.2422V27.4414C43.1016 28.0404 43.2318 28.5938 43.4922 29.1016C43.7526 29.5964 44.1823 29.8438 44.7812 29.8438C45.3932 29.8438 45.8164 29.6029 46.0508 29.1211C46.2982 28.6263 46.4219 28.0534 46.4219 27.4023V22.4805H53.5117V27.5977C53.5117 29.2122 53.1471 30.599 52.418 31.7578C51.7018 32.9036 50.7122 33.7826 49.4492 34.3945C48.1862 35.0065 46.7409 35.3125 45.1133 35.3125ZM61.2852 35.3125C59.6576 35.3125 58.4141 34.9349 57.5547 34.1797C56.7083 33.4245 56.1289 32.3893 55.8164 31.0742C55.5039 29.7591 55.3477 28.2682 55.3477 26.6016C55.3477 24.8177 55.5234 23.3594 55.875 22.2266C56.2266 21.0807 56.8255 20.1432 57.6719 19.4141C58.5312 18.6849 59.7096 18.0664 61.207 17.5586L65.543 16.0742V13.0664C65.543 11.4909 65.0286 10.7031 64 10.7031C63.0625 10.7031 62.5938 11.3411 62.5938 12.6172V14.375H55.7969C55.7839 14.2708 55.7773 14.1406 55.7773 13.9844C55.7773 13.8151 55.7773 13.6263 55.7773 13.418C55.7773 10.5013 56.4609 8.4375 57.8281 7.22656C59.2083 6.0026 61.3893 5.39062 64.3711 5.39062C65.9336 5.39062 67.3333 5.67057 68.5703 6.23047C69.8073 6.77734 70.7839 7.59115 71.5 8.67188C72.2292 9.7526 72.5938 11.0872 72.5938 12.6758V35H65.6406V31.5234C65.3021 32.7474 64.7422 33.6849 63.9609 34.3359C63.1797 34.987 62.2878 35.3125 61.2852 35.3125ZM64.0391 29.8828C64.612 29.8828 65.0026 29.6419 65.2109 29.1602C65.4193 28.6784 65.5234 28.1576 65.5234 27.5977V19.4336C64.5599 19.8242 63.8112 20.319 63.2773 20.918C62.7435 21.5039 62.4766 22.3698 62.4766 23.5156V27.2852C62.4766 29.0169 62.9974 29.8828 64.0391 29.8828Z" fill="#0D0D0D"/>
</svg>
